<?xml version="1.0" standalone="no"?>
<!DOCTYPE svg PUBLIC "-//W3C//DTD SVG 20010904//EN"
 "http://www.w3.org/TR/2001/REC-SVG-20010904/DTD/svg10.dtd">
<svg version="1.0" xmlns="http://www.w3.org/2000/svg"
 width="324.000000pt" height="56.000000pt" viewBox="0 0 324.000000 56.000000"
 preserveAspectRatio="xMidYMid meet">

<g transform="translate(0.000000,56.000000) scale(0.100000,-0.100000)"
fill="#000000" stroke="none">
<path d="M166 495 c-6 -17 -52 -21 -58 -4 -2 6 -14 8 -28 4 -23 -5 -25 -10
-22 -46 3 -25 9 -39 18 -39 16 0 19 16 4 25 -5 3 -10 11 -10 17 0 7 5 7 14 -1
11 -9 15 -9 20 1 3 7 3 2 0 -11 l-6 -24 92 6 c51 4 90 4 87 0 -4 -3 -52 -10
-108 -14 -56 -4 -103 -9 -105 -11 -8 -8 25 -188 40 -215 19 -39 111 -121 142
-129 30 -8 121 58 154 111 23 37 60 219 47 231 -3 4 -38 9 -77 12 -39 2 -72 7
-74 11 -2 3 16 4 40 2 62 -4 99 6 85 23 -9 10 -8 15 3 19 10 4 13 1 9 -9 -3
-8 1 -14 8 -14 9 -1 7 -6 -5 -15 -19 -15 -19 -15 2 -15 19 0 22 6 22 39 0 32
-4 41 -22 47 -13 4 -24 2 -26 -5 -5 -16 -59 -13 -66 4 -6 17 -56 21 -56 5 0
-5 -13 -10 -30 -10 -16 0 -30 5 -30 10 0 16 -57 12 -64 -5z m62 -36 c1 -9 -6
-15 -18 -16 -11 -1 -20 4 -20 11 0 29 32 33 38 5z m92 1 c0 -11 -4 -20 -10
-20 -5 0 -10 9 -10 20 0 11 5 20 10 20 6 0 10 -9 10 -20z m-170 -11 c0 -11 -4
-17 -10 -14 -5 3 -10 13 -10 21 0 8 5 14 10 14 6 0 10 -9 10 -21z m120 6 c0
-8 -4 -15 -10 -15 -5 0 -7 7 -4 15 4 8 8 15 10 15 2 0 4 -7 4 -15z m114 -1 c9
-24 7 -28 -9 -14 -10 9 -15 9 -15 1 0 -6 -5 -11 -10 -11 -7 0 -7 6 0 20 13 24
26 26 34 4z m-66 -76 c21 -21 13 -62 -19 -96 -31 -33 -31 -52 0 -52 35 0 56
26 53 67 -4 46 17 73 38 49 20 -25 -6 -84 -46 -108 -40 -23 -43 -39 -11 -61
14 -11 18 -19 11 -24 -6 -4 -16 -17 -23 -28 -11 -18 -12 -17 -6 8 4 22 0 33
-17 47 -24 21 -64 25 -87 11 -11 -7 -10 -12 8 -22 23 -15 28 -29 9 -29 -6 0
-20 -7 -30 -17 -10 -9 -18 -11 -18 -6 0 6 7 16 15 23 14 12 14 15 0 30 -15 16
-14 19 11 37 l27 20 -26 6 c-35 9 -29 38 13 58 32 15 32 16 10 22 l-23 6 24
20 c24 19 24 19 33 -2 5 -14 10 -17 13 -9 10 25 -6 44 -32 40 -20 -4 -23 -3
-14 8 14 17 71 18 87 2z m-148 -73 c10 -12 10 -18 0 -30 -17 -20 -37 -19 -49
3 -18 34 24 57 49 27z"/>
<path d="M370 340 c-1 -3 -3 -20 -5 -38 -2 -22 1 -30 7 -24 5 5 8 22 5 38 -2
16 -5 27 -7 24z"/>
<path d="M2987 414 c-14 -14 -7 -35 11 -32 9 2 17 10 17 17 0 16 -18 25 -28
15z"/>
<path d="M560 306 c7 -135 22 -160 98 -164 44 -3 56 1 77 22 22 22 25 34 25
98 0 40 3 90 6 111 6 36 6 37 -22 37 l-29 0 3 -86 c4 -105 -2 -132 -32 -145
-58 -27 -93 44 -82 164 l6 67 -27 0 -28 0 5 -104z"/>
<path d="M846 385 c14 -21 16 -45 12 -135 l-4 -110 24 0 c24 0 24 0 20 90 -1
50 -2 90 -1 90 1 0 32 -40 69 -90 47 -63 74 -90 88 -90 20 0 21 5 21 135 0
135 0 135 -23 135 -23 0 -23 -1 -20 -95 2 -52 1 -95 -2 -95 -3 0 -36 43 -74
95 -60 82 -73 95 -98 95 -28 0 -28 0 -12 -25z"/>
<path d="M1145 275 l0 -135 25 0 25 0 0 135 0 135 -25 0 -25 0 0 -135z"/>
<path d="M1250 402 c0 -4 5 -13 11 -19 7 -7 11 -53 10 -127 l-2 -116 24 0 c24
0 24 0 20 92 l-4 93 20 -25 c11 -14 42 -55 68 -92 37 -52 54 -67 73 -68 l25 0
0 135 0 135 -25 0 -25 0 4 -96 c2 -57 -1 -94 -6 -91 -5 3 -38 47 -73 96 -55
78 -68 91 -92 91 -15 0 -28 -4 -28 -8z"/>
<path d="M1603 277 l-69 -137 31 0 c28 0 32 4 43 45 l12 45 49 0 c51 0 52 0
75 -72 3 -12 16 -18 36 -18 32 0 37 9 18 28 -6 6 -37 65 -68 129 l-57 118 -70
-138z m80 36 c2 -10 8 -26 12 -35 6 -15 2 -18 -25 -18 -27 0 -31 3 -25 18 4 9
10 25 12 35 3 9 9 17 13 17 4 0 10 -8 13 -17z"/>
<path d="M1865 386 c-14 -14 -25 -30 -25 -35 0 -28 22 -60 59 -85 49 -34 55
-70 16 -88 -19 -9 -29 -8 -50 6 -24 16 -25 16 -25 -8 0 -38 56 -49 109 -21 59
30 55 75 -10 135 -36 33 -50 53 -46 64 9 23 36 31 58 18 26 -17 31 -15 27 11
-2 18 -10 23 -45 25 -35 3 -48 -2 -68 -22z"/>
<path d="M2062 394 c-32 -22 -30 -77 4 -109 15 -14 31 -25 35 -25 5 0 16 -12
26 -26 16 -26 16 -27 -6 -45 -28 -23 -45 -24 -65 -4 -19 20 -26 19 -26 -4 0
-31 26 -44 72 -38 49 7 78 35 78 78 0 21 -12 38 -50 70 -53 45 -59 59 -34 80
12 10 22 10 45 2 27 -11 29 -10 29 13 0 22 -4 24 -43 24 -23 0 -53 -7 -65 -16z"/>
<path d="M2280 283 c-36 -71 -66 -132 -68 -136 -2 -5 11 -7 29 -5 28 3 34 8
43 43 11 39 13 40 58 43 43 3 48 1 62 -27 9 -16 16 -37 16 -46 0 -10 10 -15
30 -15 17 0 30 2 30 3 0 6 -130 267 -133 267 -1 0 -31 -57 -67 -127z m84 10
l17 -33 -36 0 -35 0 17 35 c9 19 17 34 19 32 1 -1 9 -17 18 -34z"/>
<path d="M2517 318 c5 -116 9 -134 33 -158 28 -28 112 -28 139 -1 23 23 29 55
33 169 3 82 3 82 -22 82 l-25 0 0 -99 c0 -83 -3 -102 -19 -120 -25 -28 -41
-27 -72 4 -25 25 -26 30 -22 121 l3 94 -26 0 -25 0 3 -92z"/>
<path d="M2920 371 c0 -6 8 -15 18 -18 25 -9 32 -24 21 -44 -17 -33 -9 -43 16
-19 l25 23 26 -24 27 -24 -8 25 c-4 14 -7 37 -7 52 1 23 -3 27 -26 26 -15 0
-42 3 -59 7 -23 5 -33 4 -33 -4z"/>
<path d="M2875 203 c-4 -12 2 -25 21 -39 29 -24 25 -49 -7 -39 -10 4 -19 2
-19 -3 0 -21 42 -20 62 0 l21 21 -26 23 c-32 27 -35 49 -7 41 11 -3 20 -1 20
4 0 17 -58 10 -65 -8z"/>
<path d="M2965 196 c-33 -50 15 -106 73 -85 28 11 29 23 0 16 -23 -6 -58 8
-58 23 0 6 18 10 40 10 32 0 40 4 40 18 0 46 -69 59 -95 18z m75 -17 c0 -5
-13 -9 -30 -9 -33 0 -39 14 -13 29 18 10 43 -2 43 -20z"/>
<path d="M3085 208 c-2 -7 -6 -32 -9 -55 -3 -33 -1 -43 10 -43 10 0 14 12 14
40 0 27 5 43 15 46 8 4 15 10 15 15 0 14 -40 11 -45 -3z"/>
</g>
</svg>
